<?xml version="1.0" encoding="UTF-8" standalone="no" ?>
<!DOCTYPE svg PUBLIC "-//W3C//DTD SVG 1.1//EN" "http://www.w3.org/Graphics/SVG/1.1/DTD/svg11.dtd">
<svg xmlns="http://www.w3.org/2000/svg" xmlns:xlink="http://www.w3.org/1999/xlink" version="1.1" width="1080" height="1080" viewBox="0 0 1080 1080" xml:space="preserve">
<desc>Created with Fabric.js 5.2.4</desc>
<defs>
</defs>
<g transform="matrix(1 0 0 1 540 540)" id="cd005f5a-8bcb-48b3-aebe-4431060c3b67"  >
<rect style="stroke: none; stroke-width: 1; stroke-dasharray: none; stroke-linecap: butt; stroke-dashoffset: 0; stroke-linejoin: miter; stroke-miterlimit: 4; fill: rgb(255,255,255); fill-rule: nonzero; opacity: 1; visibility: hidden;" vector-effect="non-scaling-stroke"  x="-540" y="-540" rx="0" ry="0" width="1080" height="1080" />
</g>
<g transform="matrix(1 0 0 1 540 540)" id="a3f1d6ba-6d02-4a7c-a65a-d260caacd602"  >
</g>
<g transform="matrix(1 0 0 1 540 540)" id="bb7e1c2e-75f7-45f9-a3ae-8d80118024fd"  >
<path style="stroke: rgb(0,0,0); stroke-width: 0; stroke-dasharray: none; stroke-linecap: butt; stroke-dashoffset: 0; stroke-linejoin: miter; stroke-miterlimit: 4; fill: rgb(254,198,1); fill-rule: nonzero; opacity: 1;" vector-effect="non-scaling-stroke"  transform=" translate(-12.47, -12)" d="M 12.47 2 C 6.94997 2 2.46997 6.48 2.46997 12 C 2.46997 17.52 6.94997 22 12.47 22 C 17.99 22 22.47 17.52 22.47 12 C 22.47 6.48 18 2 12.47 2 Z M 15.47 14.23 L 12.57 15.9 C 12.21 16.11 11.81 16.21 11.42 16.21 C 11.02 16.21 10.63 16.11 10.27 15.9 C 9.54997 15.48 9.11997 14.74 9.11997 13.9 L 9.11997 10.55 C 9.11997 9.72 9.54997 8.97 10.27 8.55 C 10.99 8.13 11.85 8.13 12.58 8.55 L 15.48 10.22 C 16.2 10.64 16.63 11.38 16.63 12.22 C 16.63 13.06 16.2 13.81 15.47 14.23 Z" stroke-linecap="round" />
</g>
<g transform="matrix(NaN NaN NaN NaN 0 0)"  >
<g style=""   >
</g>
</g>
</svg>