<svg xmlns="http://www.w3.org/2000/svg" version="1.1" xmlns:xlink="http://www.w3.org/1999/xlink" xmlns:svgjs="http://svgjs.dev/svgjs" width="2000" height="1500" viewBox="0 0 2000 1500"><rect width="2000" height="1500" fill="#ffffff"></rect><g transform="matrix(0.75,0,0,0.75,249.090909090909,638.7688209070536)"><svg viewBox="0 0 396 59" data-background-color="#ffffff" preserveAspectRatio="xMidYMid meet" height="297" width="2000" xmlns="http://www.w3.org/2000/svg" xmlns:xlink="http://www.w3.org/1999/xlink"><g id="tight-bounds" transform="matrix(1,0,0,1,0.2400000000000091,-0.03809397762586286)"><svg viewBox="0 0 395.52 59.07618795525173" height="59.07618795525173" width="395.52"><g><svg viewBox="0 0 607.7274235240207 90.7721973545356" height="59.07618795525173" width="395.52"><g transform="matrix(1,0,0,1,212.20742352402073,12.545216855800511)"><svg viewBox="0 0 395.52 65.68176364293458" height="65.68176364293458" width="395.52"><g id="textblocktransform"><svg viewBox="0 0 395.52 65.68176364293458" height="65.68176364293458" width="395.52" id="textblock"><g><svg viewBox="0 0 395.52 65.68176364293458" height="65.68176364293458" width="395.52"><g transform="matrix(1,0,0,1,0,0)"><svg width="395.52" viewBox="2.95 -34.69 270.19 44.87" height="65.68176364293458" data-palette-color="#111111"><path d="M14.06 0.27L14.06 0.27Q11.82 0.27 9.11-0.31 6.4-0.88 5.3-1.53 4.2-2.17 3.58-3.36 2.95-4.54 2.95-5.63 2.95-6.71 3.47-7.31 3.98-7.91 4.59-7.91 5.2-7.91 6.87-6.52 8.54-5.13 10.22-4.42 11.89-3.71 14.38-3.71 16.87-3.71 18.43-5.03 20-6.35 20-8.76 20-11.18 17.16-13.13L17.16-13.13Q16.38-13.67 11.99-15.76 7.59-17.85 6.18-19.32 4.76-20.8 4.14-22.33 3.52-23.85 3.52-25.98L3.52-25.98Q3.52-29.83 6.76-32.37L6.76-32.37Q9.67-34.69 15.48-34.69L15.48-34.69Q19.04-34.69 21.46-33.64L21.46-33.64Q22.56-33.15 23.3-31.99 24.05-30.83 24.05-29.83L24.05-29.83Q24.05-27.49 22.51-27.49L22.51-27.49Q22.07-27.49 19.51-29.17 16.94-30.86 14.37-30.86 11.79-30.86 10.22-29.65 8.64-28.44 8.64-26.32 8.64-24.19 10.72-22.53L10.72-22.53Q11.84-21.63 16.41-19.57 20.97-17.5 22.64-15.83 24.32-14.16 24.87-12.63 25.42-11.11 25.42-9.11 25.42-7.1 24.56-5.35L24.56-5.35Q22.85-1.76 18.48-0.39L18.48-0.39Q16.41 0.27 14.23 0.27L14.23 0.27Q14.14 0.27 14.06 0.27ZM42.45-14.38L42.45-14.38Q44.11-14.38 44.8-14.89 45.48-15.41 45.48-16.06L45.48-16.06 45.48-17.09Q45.48-18.85 44.19-20 42.89-21.14 41.35-21.14L41.35-21.14 40.72-21.14Q38.5-21.14 36.84-19.27 35.18-17.41 35.18-15.19L35.18-15.19 35.18-14.77Q35.18-13.92 36.74-13.92L36.74-13.92 37.3-13.92 37.45-13.94 39.28-14.06 40.5-14.16 41.33-14.26Q41.55-14.28 41.93-14.33 42.31-14.38 42.45-14.38ZM41.45 0.32L41.45 0.32 40.38 0.32Q35.5 0.32 32.54-2.98L32.54-2.98Q31.22-4.44 30.49-6.7 29.76-8.96 29.76-11.18L29.76-11.18 29.76-12.28Q29.76-14.5 30.69-16.94L30.69-16.94Q32.47-21.7 36.74-23.41L36.74-23.41Q38.94-24.32 41.4-24.32L41.4-24.32 41.94-24.32Q45.36-24.32 47.58-22.24L47.58-22.24Q48.85-21.04 49.5-19.37 50.14-17.7 50.14-16.36L50.14-16.36Q50.14-13.4 48.29-12.5L48.29-12.5Q47.02-11.89 42.49-11.35 37.96-10.82 37.52-10.69L37.52-10.69Q35.4-10.16 35.4-8.79L35.4-8.79Q35.4-6.42 37.57-4.83L37.57-4.83Q39.16-3.66 42.11-3.66L42.11-3.66Q43.23-3.66 45.75-4.37 48.26-5.08 48.51-5.08L48.51-5.08Q49.78-5.08 49.78-3.93L49.78-3.93Q49.78-2.49 47.06-1.09 44.33 0.32 41.45 0.32ZM67.45-19.29L67.45-19.29Q65.16-19.29 63.89-17 62.62-14.72 62.62-10.03L62.62-10.03Q62.62-7.96 62.79-7.09 62.96-6.23 63.31-4.94 63.67-3.66 63.67-2.72 63.67-1.78 62.54-1 61.42-0.22 59.61-0.22L59.61-0.22 59.2-0.24 58.76-0.24Q57.59-0.24 56.82-0.9 56.05-1.56 56.05-2.39L56.05-2.39 56.05-2.78Q56.05-2.95 56.51-4.39 56.98-5.83 57.05-7.18 57.12-8.52 57.12-10.79L57.12-10.79 57.12-13.5 57.1-13.94Q57.1-14.38 57.1-14.82L57.1-14.82 57.05-16.14Q57.03-16.58 57.03-17.86 57.03-19.14 56.57-20.3 56.12-21.46 56.12-21.8L56.12-21.8Q56.12-23.27 58.69-23.27 61.25-23.27 62.4-21.88L62.4-21.88Q62.74-21.46 63.12-21.46 63.5-21.46 64.37-22.07L64.37-22.07Q66.82-23.73 68.48-23.73L68.48-23.73 68.87-23.73Q70.33-23.73 71.1-23.07 71.87-22.41 71.87-21.31L71.87-21.31Q71.87-19.14 69.45-19.14L69.45-19.14Q68.5-19.29 67.45-19.29ZM85.73 0L85.73 0Q83.95 0 82.45-3.17 80.95-6.35 79.08-11.8 77.21-17.26 76.04-19.21 74.87-21.17 74.87-22.19 74.87-23.22 75.36-23.63L75.36-23.63Q75.87-24.05 77.65-24.05L77.65-24.05Q80.51-24.05 81.44-21.97L81.44-21.97Q81.66-21.46 81.97-19.75 82.29-18.04 84.09-12.08 85.88-6.13 86.52-6.13L86.52-6.13Q87.27-6.13 89.37-12.74 91.47-19.36 91.67-20.84 91.86-22.31 91.96-22.56L91.96-22.56Q92.52-24.07 94.67-24.07L94.67-24.07 95.16-24.07Q96.4-24.07 96.86-23.69 97.31-23.32 97.31-22.31L97.31-22.31 97.31-21.9Q97.31-21.26 95.84-18.75L95.84-18.75Q95.52-18.21 93.07-11.61 90.62-5 89.53-2.95 88.44-0.9 87.7-0.45 86.96 0 85.73 0ZM105.48-34.3L105.48-34.3 106.29-34.3Q107.34-34.3 108.1-33.67 108.85-33.03 108.85-31.81L108.85-31.81 108.85-31.2Q108.85-30.2 108.19-29.41 107.53-28.61 106.51-28.61L106.51-28.61 106.02-28.54 105.21-28.54Q104.92-28.61 104.48-28.61 104.04-28.61 103.44-29.21 102.85-29.81 102.85-30.54L102.85-30.54Q102.8-30.74 102.8-30.83L102.8-30.83 102.75-31.32 102.75-31.45 102.85-32.23Q102.85-32.79 103.48-33.54 104.12-34.3 105.48-34.3ZM105.87-0.07L105.87-0.07 104.63-0.07Q103.6-0.07 102.87-0.66 102.14-1.25 102.14-1.94 102.14-2.64 102.55-3.96 102.97-5.27 102.97-6.3L102.97-6.3 103.02-6.91 103.07-8.18 103.07-9.18 103.09-9.84 103.09-17.77Q102.99-19.09 102.68-20L102.68-20 102.46-20.46Q101.94-21.73 101.94-21.85L101.94-21.85 101.94-22.34Q101.94-23.75 104.87-23.75L104.87-23.75 105.75-23.75Q107.53-23.75 107.92-22.36L107.92-22.36Q108.02-22 108.02-18.09L108.02-18.09 108.02-12.55 108.07-10.94 108.17-9.06Q108.17-6.15 109.37-4.13L109.37-4.13Q109.85-3.3 109.85-2.28 109.85-1.27 108.71-0.67 107.56-0.07 105.87-0.07ZM117.69-13.28Q115.59-15.14 115.59-18.08 115.59-21.02 118.1-22.89 120.62-24.76 124.5-24.76 128.38-24.76 130.16-23.82 131.95-22.88 131.95-21.36L131.95-21.36Q131.95-19.29 130.6-19.29L130.6-19.29Q130.14-19.29 128.14-20.29 126.13-21.29 124.26-21.29 122.38-21.29 121.44-20.43 120.5-19.58 120.5-18.24 120.5-16.89 122.3-15.84L122.3-15.84Q122.91-15.48 126.27-14.15 129.63-12.82 130.99-11.62L130.99-11.62Q133.12-9.74 133.12-6.74 133.12-3.74 130.61-1.7 128.11 0.34 124.16 0.34L124.16 0.34Q117.44 0.34 115.83-2.27L115.83-2.27Q115.32-3.1 115.32-3.74L115.32-3.74Q115.32-5.86 116.64-5.86L116.64-5.86Q117.03-5.86 119.51-4.55 121.98-3.25 123.93-3.25 125.87-3.25 126.99-4.08 128.11-4.91 128.11-6.34 128.11-7.76 126.33-8.96L126.33-8.96Q125.6-9.45 122.3-10.78 119.01-12.11 117.69-13.28L117.69-13.28ZM162.14-29.08L162.14-29.08Q157.26-26.22 157.26-16.85L157.26-16.85Q157.26-7.45 162.92-4.76L162.92-4.76Q164.68-3.93 167.59-3.93 170.49-3.93 174.67-6.35L174.67-6.35Q175.79-7.01 176.55-7.01L176.55-7.01Q177.55-7.01 177.55-5.69L177.55-5.69Q177.55-4.98 176.69-3.8 175.84-2.61 174.37-1.76L174.37-1.76Q170.93 0.24 166.46 0.24L166.46 0.24 165.68 0.24Q162.53 0.24 159.75-0.95L159.75-0.95Q154.35-3.27 152.4-9.72L152.4-9.72Q151.52-12.65 151.52-15.89L151.52-15.89 151.52-16.7Q151.52-20.21 152.55-23.63L152.55-23.63Q154.55-30.27 160.33-33.03L160.33-33.03Q163.41-34.47 167.51-34.47L167.51-34.47Q174.13-34.47 176.01-31.32L176.01-31.32Q176.79-30 176.79-29L176.79-29Q176.79-26.88 175.3-26.88L175.3-26.88Q174.84-26.88 173.2-28 171.56-29.13 169.92-29.68 168.27-30.22 166.19-30.22 164.12-30.22 162.14-29.08ZM194.34-14.38L194.34-14.38Q196-14.38 196.68-14.89 197.37-15.41 197.37-16.06L197.37-16.06 197.37-17.09Q197.37-18.85 196.07-20 194.78-21.14 193.24-21.14L193.24-21.14 192.61-21.14Q190.39-21.14 188.73-19.27 187.06-17.41 187.06-15.19L187.06-15.19 187.06-14.77Q187.06-13.92 188.63-13.92L188.63-13.92 189.19-13.92 189.34-13.94 191.17-14.06 192.39-14.16 193.22-14.26Q193.44-14.28 193.82-14.33 194.19-14.38 194.34-14.38ZM193.34 0.32L193.34 0.32 192.27 0.32Q187.38 0.32 184.43-2.98L184.43-2.98Q183.11-4.44 182.38-6.7 181.65-8.96 181.65-11.18L181.65-11.18 181.65-12.28Q181.65-14.5 182.57-16.94L182.57-16.94Q184.36-21.7 188.63-23.41L188.63-23.41Q190.82-24.32 193.29-24.32L193.29-24.32 193.83-24.32Q197.25-24.32 199.47-22.24L199.47-22.24Q200.74-21.04 201.38-19.37 202.03-17.7 202.03-16.36L202.03-16.36Q202.03-13.4 200.18-12.5L200.18-12.5Q198.91-11.89 194.38-11.35 189.85-10.82 189.41-10.69L189.41-10.69Q187.28-10.16 187.28-8.79L187.28-8.79Q187.28-6.42 189.46-4.83L189.46-4.83Q191.04-3.66 194-3.66L194-3.66Q195.12-3.66 197.64-4.37 200.15-5.08 200.4-5.08L200.4-5.08Q201.66-5.08 201.66-3.93L201.66-3.93Q201.66-2.49 198.94-1.09 196.22 0.32 193.34 0.32ZM224.66-11.96L224.66-11.96 224.66-13.33Q224.66-16.92 223.24-19.04 221.83-21.17 219.48-21.17L219.48-21.17 219.26-21.17 219.02-21.14Q217.92-21.14 216.66-20.51 215.41-19.87 214.58-18.55 213.75-17.24 213.75-12.55L213.75-12.55 213.75-9.77Q213.75-6.13 214.46-5.08L214.46-5.08Q215.65-3.3 218.17-3.3L218.17-3.3 218.63-3.3Q221.24-3.3 222.95-5.63 224.66-7.96 224.66-11.96ZM210.48 10.18L210.48 10.18Q207.62 10.18 207.62 8.13L207.62 8.13Q207.62 7.47 207.99 6.36 208.35 5.25 208.47 4.38 208.6 3.52 208.77-0.62 208.94-4.76 208.94-8.86L208.94-8.86 208.94-16.43Q208.94-19.02 208.52-20.4 208.11-21.78 208.11-22.17L208.11-22.17Q208.11-23.49 211.13-23.49L211.13-23.49Q211.45-23.49 212.36-23.32L212.36-23.32 213.09-23.14Q214.26-22.95 214.72-22.95 215.19-22.95 217.17-23.66 219.14-24.37 220.68-24.37L220.68-24.37 221.8-24.37Q223.59-24.37 225.25-23.4 226.91-22.44 227.91-21.07L227.91-21.07Q230.01-18.16 230.01-14.09L230.01-14.09 230.01-12.87Q230.01-10.16 229.08-7.67L229.08-7.67Q226.52-0.76 218.61-0.37L218.61-0.37Q216.36-0.27 215.21 0.39 214.06 1.05 214.06 2.83L214.06 2.83Q214.06 3.47 214.41 4.83 214.75 6.2 214.75 6.86L214.75 6.86Q214.75 8.33 213.54 9.25 212.33 10.18 210.48 10.18ZM244.7-0.1L244.7-0.1 243.77-0.1Q240.26-0.1 238.72-3.13L238.72-3.13Q237.45-5.59 237.45-11.23 237.45-16.87 236.84-18.97L236.84-18.97Q236.62-19.75 235.62-20.75 234.62-21.75 234.62-22.49L234.62-22.49 234.62-22.8Q234.62-23.44 235.77-24.19 236.91-24.95 237.1-25.28 237.28-25.61 237.83-27.65 238.38-29.69 238.98-30.51 239.57-31.32 240.59-31.32 241.6-31.32 242.03-30.74 242.46-30.15 242.88-28.32 243.31-26.49 243.82-25.84 244.34-25.2 246.31-24.49 248.29-23.78 248.29-22.73L248.29-22.73Q248.29-21.8 246.23-21.07 244.16-20.34 243.63-19.26L243.63-19.26Q242.6-17.19 242.6-11.91 242.6-6.64 243.51-5.46 244.41-4.27 246.45-4 248.49-3.74 248.49-2.47L248.49-2.47Q248.49-1.49 247.33-0.79 246.17-0.1 244.7-0.1ZM265.45-14.38L265.45-14.38Q267.11-14.38 267.79-14.89 268.48-15.41 268.48-16.06L268.48-16.06 268.48-17.09Q268.48-18.85 267.18-20 265.89-21.14 264.35-21.14L264.35-21.14 263.72-21.14Q261.5-21.14 259.84-19.27 258.18-17.41 258.18-15.19L258.18-15.19 258.18-14.77Q258.18-13.92 259.74-13.92L259.74-13.92 260.3-13.92 260.45-13.94 262.28-14.06 263.5-14.16 264.33-14.26Q264.55-14.28 264.93-14.33 265.3-14.38 265.45-14.38ZM264.45 0.32L264.45 0.32 263.38 0.32Q258.49 0.32 255.54-2.98L255.54-2.98Q254.22-4.44 253.49-6.7 252.76-8.96 252.76-11.18L252.76-11.18 252.76-12.28Q252.76-14.5 253.68-16.94L253.68-16.94Q255.47-21.7 259.74-23.41L259.74-23.41Q261.94-24.32 264.4-24.32L264.4-24.32 264.94-24.32Q268.36-24.32 270.58-22.24L270.58-22.24Q271.85-21.04 272.49-19.37 273.14-17.7 273.14-16.36L273.14-16.36Q273.14-13.4 271.29-12.5L271.29-12.5Q270.02-11.89 265.49-11.35 260.96-10.82 260.52-10.69L260.52-10.69Q258.4-10.16 258.4-8.79L258.4-8.79Q258.4-6.42 260.57-4.83L260.57-4.83Q262.16-3.66 265.11-3.66L265.11-3.66Q266.23-3.66 268.75-4.37 271.26-5.08 271.51-5.08L271.51-5.08Q272.78-5.08 272.78-3.93L272.78-3.93Q272.78-2.49 270.05-1.09 267.33 0.32 264.45 0.32Z" opacity="1" transform="matrix(1,0,0,1,0,0)" fill="#111111" class="wordmark-text-0" data-fill-palette-color="primary" id="text-0"></path></svg></g></svg></g></svg></g></svg></g><g><svg viewBox="0 0 196.7015354902513 90.7721973545356" height="90.7721973545356" width="196.7015354902513"><g><svg xmlns="http://www.w3.org/2000/svg" xmlns:xlink="http://www.w3.org/1999/xlink" version="1.0" x="0" y="0" viewBox="0.00021930803571428356 27.29277420976149 99.90260067464364 46.10222569980675" enable-background="new 0 0 100 100" xml:space="preserve" height="90.7721973545356" width="196.7015354902513" class="icon-icon-0" data-fill-palette-color="accent" id="icon-0"><path d="M99.894 60.338C99.836 60.169 99.246 60.254 99.246 60.254L99.696 52.261C98.653 49.407 97.069 31.375 96.435 29.088 95.799 26.8 43.722 27.351 41.406 27.351S9.633 28.056 8.079 28.226 2.714 29.384 2.714 29.384C0.073 41.57 0.566 57.345 0.566 57.345L0.015 57.387C-0.111 60.141 0.61 60.905 0.61 60.905S1.159 61.116 1.881 61.116 5.989 62.809 5.989 62.809L6.372 66.369H19.715C19.745 61.526 22.88 56.707 29.126 56.707S38.507 61.526 38.537 66.369H73.903C73.88 61.485 77.014 56.582 83.314 56.582 89.586 56.582 92.723 61.442 92.727 66.306 99.99 65.685 99.947 60.497 99.894 60.338M17.512 62.938H7.854V36.029H17.512zM36.659 43.85A2.04 2.04 0 0 1 34.626 45.884H21.324A2.04 2.04 0 0 1 19.29 43.85V33.306A2.04 2.04 0 0 1 21.324 31.271H34.626A2.04 2.04 0 0 1 36.659 33.306zM54.959 43.85A2.04 2.04 0 0 1 52.926 45.884H39.625A2.04 2.04 0 0 1 37.591 43.85V33.306A2.04 2.04 0 0 1 39.625 31.271H52.926A2.04 2.04 0 0 1 54.959 33.306zM68.542 62.938H57.732V35.145H68.542zM75.803 43.85A2.04 2.04 0 0 1 73.77 45.884H72.499A2.04 2.04 0 0 1 70.467 43.85V33.306A2.04 2.04 0 0 1 72.499 31.271H73.77A2.04 2.04 0 0 1 75.803 33.306zM94.104 43.85C94.104 44.968 93.24 45.884 92.183 45.884H78.656C77.597 45.884 76.736 44.968 76.736 43.85V33.306C76.736 32.187 77.597 31.271 78.656 31.271H92.182C93.239 31.271 94.103 32.187 94.103 33.306zM96.391 31.473L98.37 47.911C94.075 46.582 96.391 31.473 96.391 31.473" fill="#ffdc00" data-fill-palette-color="accent"></path><circle cx="83.25" cy="65.938" r="7.5" fill="#ffdc00" data-fill-palette-color="accent"></circle><circle cx="29.026" cy="65.938" r="7.5" fill="#ffdc00" data-fill-palette-color="accent"></circle></svg></g></svg></g></svg></g><defs></defs></svg><rect width="395.52" height="59.07618795525173" fill="none" stroke="none" visibility="hidden"></rect></g></svg></g></svg>