<?xml version="1.0" standalone="no"?>
<!DOCTYPE svg PUBLIC "-//W3C//DTD SVG 20010904//EN"
 "http://www.w3.org/TR/2001/REC-SVG-20010904/DTD/svg10.dtd">
<svg version="1.0" xmlns="http://www.w3.org/2000/svg"
 width="2048.000000pt" height="2048.000000pt" viewBox="0 0 2048.000000 2048.000000"
 preserveAspectRatio="xMidYMid meet">

<g transform="translate(0.000000,2048.000000) scale(0.100000,-0.100000)"
fill="#000000" stroke="none">
<path d="M10000 17913 c-666 -35 -1093 -81 -1623 -174 -795 -139 -1723 -398
-2162 -601 -708 -328 -1037 -672 -1180 -1234 -17 -70 -108 -749 -305 -2295
l-280 -2195 0 -3072 0 -3072 495 0 495 0 0 -531 0 -530 32 -76 c44 -108 116
-210 205 -293 96 -90 200 -151 323 -192 81 -26 114 -31 225 -35 148 -6 222 6
350 56 202 78 390 261 470 460 l25 61 0 540 0 540 3179 0 3180 0 3 -597 c4
-588 4 -599 27 -673 46 -153 138 -293 257 -392 70 -59 251 -149 349 -175 53
-13 105 -18 210 -17 121 1 152 4 228 28 235 71 416 216 510 409 83 169 80 145
85 820 l3 597 481 0 481 0 -6 823 c-4 452 -12 1821 -18 3042 l-11 2220 -284
2230 c-304 2383 -299 2351 -383 2567 -117 299 -340 551 -669 757 -193 121
-509 272 -735 352 -566 200 -1319 390 -1972 498 -691 114 -1521 179 -1985 154z
m2801 -1144 c79 -37 133 -90 171 -167 30 -60 33 -75 33 -157 0 -78 -4 -97 -28
-147 -35 -72 -119 -149 -195 -180 l-57 -23 -2420 -3 c-1487 -1 -2446 1 -2489
7 -239 33 -387 279 -292 487 42 93 115 161 209 194 50 19 124 19 2532 17
l2480 -2 56 -26z m1444 -1424 c158 -42 294 -165 339 -310 9 -27 120 -835 248
-1795 172 -1297 231 -1768 230 -1835 -3 -190 -73 -318 -225 -409 -121 -72 283
-66 -4555 -66 -2923 0 -4377 3 -4413 10 -228 43 -389 247 -389 492 0 48 96
755 250 1838 244 1723 250 1762 281 1828 39 80 123 168 197 206 116 59 -183
55 4067 55 3481 1 3917 -1 3970 -14z m-7820 -6496 c160 -29 323 -116 445 -239
282 -287 324 -730 99 -1061 -226 -335 -640 -471 -1008 -333 -213 80 -409 274
-491 486 -159 412 21 877 415 1072 171 85 345 109 540 75z m7950 5 c275 -29
549 -243 663 -517 48 -114 66 -221 59 -356 -6 -130 -23 -202 -72 -308 -86
-186 -213 -316 -402 -412 -137 -68 -369 -112 -496 -91 -208 33 -400 140 -528
294 -66 79 -150 239 -174 331 -23 88 -30 259 -15 352 61 380 370 672 755 713
69 7 93 7 210 -6z"/>
</g>
</svg>
